<svg width="9" height="12" viewBox="0 0 9 12" fill="none" xmlns="http://www.w3.org/2000/svg">
        <path d="M4.41511 7.53103V2.85517H3.71166V7.63862L3.95166 7.37379L4.54338 7.91586L4.33649 8.14345H5.76821V7.53103H4.41511ZM3.70752 0V2.37931H4.41097V0.823448H8.08959V7.53103H7.13373V8.13931H8.75579V0H3.70752Z" fill="#F8B430"></path>
        <path d="M6.64138 7.53105V1.30347H0V12H6.64138V8.13933H5.76414V11.1973H1.53931L1.00138 11.7848L0.409655 11.2469L0.926896 10.68V2.37933H5.76414V7.53105H6.64138Z" fill="#F8B430"></path>
        <path d="M6.6414 7.53101H5.76416V8.13928H6.6414V7.53101Z" fill="#F8B430"></path>
        <path d="M1.53932 11.1972L1.00139 11.789L0.409668 11.2469L0.926909 10.68V11.1972H1.53932Z" fill="#F8B430"></path>
        <path d="M4.54338 7.91176L4.33235 8.13935H3.70752V7.63452L3.94752 7.36969L4.54338 7.91176Z" fill="#F8B430"></path>
        <path d="M4.33252 8.13929L1.53942 11.1972H0.927002V10.68L3.70769 7.63446V8.13929H4.33252Z" fill="#F8B430"></path>
        </svg>